<svg width="62" height="39" viewBox="0 0 62 39" fill="none" xmlns="http://www.w3.org/2000/svg">
<path d="M61.5861 0.0566151C61.6972 0.116104 61.7807 0.218195 61.8183 0.340503C61.8558 0.46281 61.8444 0.59535 61.7865 0.709057L42.715 38.1729L42.6917 38.2062C42.308 38.734 41.8956 38.9999 41.4646 38.9999C41.3917 39.0006 41.3188 38.994 41.2471 38.9801C40.1801 38.7602 39.6675 36.9005 39.5689 36.4918C39.5689 36.4807 39.5634 36.4719 39.5595 36.4608L33.7846 18.7163C33.7648 18.656 33.7568 18.5923 33.7612 18.5289C33.7655 18.4654 33.7821 18.4035 33.81 18.3466C33.8378 18.2897 33.8764 18.2391 33.9235 18.1975C33.9706 18.1559 34.0253 18.1242 34.0844 18.1043H34.0929C34.2107 18.0645 34.3392 18.0736 34.4506 18.1295C34.562 18.1855 34.6474 18.2839 34.6886 18.4036L41.0771 36.9855C41.1077 37.0741 41.1629 37.1518 41.236 37.2089C41.3091 37.266 41.3968 37.3002 41.4886 37.3071C41.5803 37.3141 41.6721 37.2937 41.7527 37.2482C41.8332 37.2028 41.8991 37.1344 41.9422 37.0513L60.9446 0.258221C60.9736 0.202021 61.0131 0.152202 61.0609 0.111611C61.1086 0.0710193 61.1638 0.0404519 61.2232 0.0216552C61.2825 0.00285856 61.3449 -0.00379865 61.4068 0.00206373C61.4687 0.00792611 61.5288 0.0261931 61.5838 0.0558212L61.5861 0.0566151Z" fill="#FB1023"/>
<path d="M37.4317 38.8162L37.3194 38.4647L25.6113 2.13669C25.5573 1.96929 25.451 1.82323 25.3079 1.71959C25.1647 1.61594 24.992 1.56006 24.8148 1.56H12.2155C12.0363 1.55928 11.8615 1.61572 11.7171 1.72099C11.5727 1.82626 11.4662 1.97478 11.4134 2.14464L3.30369 28.2402L1.62801 33.681L0.555544 37.118L0.00286702 38.8982C-0.0203952 39.0294 0.105541 38.9928 0.105541 38.9928L10.0024 39C10.2575 39 10.2342 38.8687 10.2342 38.8687L11.565 34.2553L12.3037 31.7465C12.3057 31.729 12.3116 31.7122 12.3209 31.6973C12.3303 31.6824 12.3429 31.6698 12.3578 31.6603C12.3727 31.6509 12.3896 31.6448 12.4072 31.6427C12.4247 31.6405 12.4426 31.6423 12.4594 31.6479H24.1274C24.2798 31.6256 24.303 31.7274 24.303 31.7274L24.376 31.9708L26.4816 38.8592C26.525 39.0398 26.76 38.9936 26.76 38.9936H37.3226C37.4847 38.9928 37.4317 38.8162 37.4317 38.8162ZM22.3161 23.7612H14.2602C13.9987 23.7612 14.1078 23.5313 14.1078 23.5313L17.9388 8.54625H18.3599L22.3658 23.5337C22.4356 23.7906 22.3161 23.7612 22.3161 23.7612Z" fill="white"/>
</svg>
